<?xml version="1.0" standalone="no"?>
<svg viewBox="0 0 200 200" xmlns="http://www.w3.org/2000/svg">
  <path fill="#FFD394" d="M42.1,-70.2C55.1,-65.5,66.5,-55.2,73,-42.6C79.4,-30,80.9,-15,77.3,-2.1C73.7,10.8,64.9,21.6,57.2,32.1C49.5,42.5,42.9,52.6,33.5,54.4C24.1,56.3,12.1,49.8,2.8,45C-6.5,40.1,-13,36.9,-26.3,37.4C-39.7,37.9,-59.9,42.1,-68.1,36.5C-76.3,30.8,-72.5,15.4,-67.9,2.6C-63.4,-10.2,-58.2,-20.4,-50.6,-27.1C-43.1,-33.8,-33.1,-37,-24.3,-44C-15.5,-51.1,-7.7,-62.1,3.4,-68C14.6,-73.9,29.1,-74.8,42.1,-70.2Z" transform="translate(100 100)" />
</svg>
